<svg fill="none" height="24" viewBox="0 0 24 24" width="24" xmlns="http://www.w3.org/2000/svg"><path clip-rule="evenodd" d="m20.5 2h-15.46001c-.33 0-.64998.17001-.82998.45001l-1.54001 2.29999c-.11.16-.17.35999-.17.54999v12.70001c0 .55.45 1 1 1h2c.55 0 1 .45 1 1v1c0 .55.45 1 1 1h1.46001c.33 0 .64998-.17.82998-.45l1.41001-2.11c.19-.28.5-.45.83-.45h4.05c.27 0 .52-.11.71-.29l4.41-4.41c.19-.19.29-.44.29-.71v-10.58c.01-.55-.44-1-.99-1zm-9.71 10.86c0 .32-.26.57-.57.57h-1.14c-.32 0-.57001-.26-.57001-.57v-5.71001c0-.32.26001-.57.57001-.57h1.14c.32 0 .57.26.57.57zm5.71 0c0 .32-.26.57-.57.57h-1.14c-.32 0-.57-.26-.57-.57v-5.71001c0-.32.26-.57.57-.57h1.14c.32 0 .57.26.57.57z" fill="#000" fill-rule="evenodd"/></svg>